<svg id="Capa_1" enable-background="new 0 0 511.998 511.998" height="512" viewBox="0 0 511.998 511.998" width="512" xmlns="http://www.w3.org/2000/svg"><g><path d="m172.397 349.842 25.069 53.419 36.02-28.55-34.435-34.435z"/><path d="m422.034 379.419-54.058-19.395-42.438 90.287-29.8-23.644c-2.853 5.458-6.751 10.214-11.486 14.073l14.05 71.258h182.684l-22.531-91.24c-4.682-18.629-18.091-34.019-36.421-41.339z"/><path d="m256.001 395.142-14.821 11.75c.487 7.839 6.861 14.108 14.821 14.108 7.958 0 14.328-6.268 14.819-14.103z"/><path d="m227.755 440.742c-4.742-3.864-8.643-8.622-11.497-14.088l-29.837 23.657-42.385-90.291-54.553 19.58c-17.849 7.139-31.26 22.529-35.94 41.158l-22.529 91.24h182.703z"/><path d="m278.501 374.711 35.991 28.55 25.108-53.416-26.666-9.567z"/><path d="m244.306 511.998h23.403l-11.706-59.533z"/><path d="m361.001 166c0-24.814-20.186-45-45-45s-45 20.186-45 45v15h-120v30c0 47.485 31.741 87.14 75 100.118v13.66l30.004 30.007 29.98-29.98v-13.676c43.275-12.968 75.016-52.634 75.016-100.129z"/><path d="m166.001 151h76.5c6.901-34.2 37.2-60 73.5-60 16.8 0 32.401 6 45 15.3v-.3c0-41.4-33.6-76-75-76h-75c-8.401 0-15-6.599-15-15v-15h-30c-41.57 0-75 34.43-75 76 0 42.545 34.744 75 75 75z"/></g></svg>